<?xml version="1.0" encoding="UTF-8"?>
<svg version="1.1" xmlns="http://www.w3.org/2000/svg" width="512" height="512">
<path d="M0 0 C1.4284726 0.35853058 1.4284726 0.35853058 2.88580322 0.7243042 C6.01554345 1.51235309 9.14164319 2.31391789 12.26782227 3.1159668 C14.45424671 3.67001846 16.64085979 4.22332623 18.82765198 4.77592468 C23.40433733 5.93450482 27.9793791 7.09929518 32.55322266 8.26904297 C38.39927741 9.76404428 44.24809952 11.24783819 50.09805202 12.72750568 C54.61223563 13.8698536 59.12544662 15.01600268 63.63832283 16.16350365 C65.79380587 16.71153963 67.94945745 17.25891313 70.10528374 17.80559731 C73.12578484 18.57261824 76.14508003 19.34421377 79.1640625 20.1171875 C80.04485977 20.34017014 80.92565704 20.56315277 81.83314514 20.79289246 C82.66695709 21.0073703 83.50076904 21.22184814 84.35984802 21.44282532 C85.07122138 21.62441854 85.78259474 21.80601175 86.51552486 21.9931078 C90.43024238 23.12321125 94.28124894 24.46419236 98.14672852 25.75268555 C98.14672852 132.01268555 98.14672852 238.27268555 98.14672852 347.75268555 C76.29409616 343.15213137 76.29409616 343.15213137 68.21240234 341.15893555 C67.27638184 340.93069092 66.34036133 340.70244629 65.37597656 340.46728516 C62.36770629 339.73256338 59.36063226 338.99310549 56.35375977 338.25268555 C54.22531707 337.72989622 52.09687366 337.20710982 49.96842957 336.68432617 C45.54832455 335.59761586 41.12895176 334.50797962 36.70996094 333.41674805 C31.06246632 332.02284081 25.41211392 330.64089699 19.76103687 329.26159668 C15.38160941 328.19047412 11.00431973 327.1108121 6.6275692 326.02880859 C4.54444295 325.51535666 2.46053826 325.00505178 0.37583351 324.49804688 C-2.53251616 323.78985714 -5.43763204 323.06961536 -8.34228516 322.34643555 C-9.19069473 322.14268311 -10.03910431 321.93893066 -10.91322327 321.72900391 C-23.76775613 318.48756823 -23.76775613 318.48756823 -28.04999828 312.8719635 C-30.79631271 307.70834669 -30.40585715 302.28413885 -30.36120605 296.56884766 C-30.36744602 295.34273993 -30.37368598 294.11663221 -30.38011503 292.85336971 C-30.39328557 289.46191275 -30.3885786 286.07134506 -30.37617016 282.67994261 C-30.36710761 279.01797178 -30.38109534 275.3560778 -30.39208984 271.69412231 C-30.40986686 264.52510782 -30.40603877 257.35626093 -30.39443928 250.18723989 C-30.385402 244.36031676 -30.38418223 238.53344057 -30.38853455 232.70651245 C-30.38914748 231.87687357 -30.38976041 231.04723469 -30.39039192 230.19245523 C-30.39167083 228.50700608 -30.39296768 226.82155693 -30.39428228 225.1361078 C-30.40568568 209.33540973 -30.39257815 193.53480452 -30.37108082 177.73412168 C-30.35321004 164.17939074 -30.35631422 150.62479683 -30.37475586 137.07006836 C-30.39616682 121.32552236 -30.40458707 105.58105774 -30.3923068 89.83649921 C-30.39103262 88.1572857 -30.38977514 86.47807218 -30.38853455 84.79885864 C-30.38791744 83.97267546 -30.38730034 83.14649228 -30.38666454 82.29527324 C-30.38321232 76.47603427 -30.38903723 70.65684694 -30.39845276 64.83761597 C-30.40967663 57.74490002 -30.4066246 50.65236113 -30.38532978 43.55966544 C-30.37482449 39.94152442 -30.37068837 36.32367848 -30.38392639 32.7055397 C-30.39806327 28.78236777 -30.38117195 24.85967799 -30.36120605 20.93652344 C-30.37012894 19.79440368 -30.37905183 18.65228392 -30.38824511 17.47555447 C-30.32433332 11.01366739 -29.71462508 7.00607115 -25.85327148 1.75268555 C-23.99389648 0.1940918 -23.99389648 0.1940918 -22.10327148 -0.68481445 C-21.48967773 -0.99290039 -20.87608398 -1.30098633 -20.24389648 -1.6184082 C-13.32014896 -3.43985159 -6.73961137 -1.74864782 0 0 Z " fill="#000000" transform="translate(61.853271484375,81.247314453125)"/>
<path d="M0 0 C21.85263236 4.60055418 21.85263236 4.60055418 29.93432617 6.59375 C30.87034668 6.82199463 31.80636719 7.05023926 32.77075195 7.28540039 C35.77902223 8.02012217 38.78609626 8.75958005 41.79296875 9.5 C43.92141145 10.02278933 46.04985486 10.54557573 48.17829895 11.06835938 C52.59840397 12.15506969 57.01777676 13.24470593 61.43676758 14.3359375 C67.08426219 15.72984474 72.7346146 17.11178855 78.38569164 18.49108887 C82.7651191 19.56221143 87.14240878 20.64187345 91.51915932 21.72387695 C93.60228556 22.23732889 95.68619026 22.74763377 97.770895 23.25463867 C100.67924468 23.9628284 103.58436055 24.68307019 106.48901367 25.40625 C107.33742325 25.61000244 108.18583282 25.81375488 109.05995178 26.02368164 C121.91410761 29.26502225 121.91410761 29.26502225 126.1967268 34.88030148 C128.94398812 40.04572431 128.55257394 45.47336445 128.50793457 51.19056702 C128.51417453 52.4173803 128.5204145 53.64419359 128.52684355 54.90818304 C128.54001408 58.30157044 128.53530715 61.69406907 128.52289867 65.08740199 C128.51383621 68.75139868 128.52782375 72.41531857 128.53881836 76.07929993 C128.55659494 83.25198941 128.55276764 90.42451136 128.5411678 97.59720737 C128.53213104 103.42652276 128.53091051 109.25579123 128.53526306 115.08511162 C128.53587599 115.91503922 128.53648893 116.74496683 128.53712043 117.60004376 C128.53839934 119.28605864 128.53969619 120.97207352 128.5410108 122.65808838 C128.55241389 138.46352507 128.53930679 154.26886892 128.51780933 170.07429039 C128.49993528 183.63559228 128.50304549 197.19675722 128.52148438 210.75805664 C128.5428902 226.50881897 128.55131875 242.25949998 128.53903532 258.01027483 C128.53776113 259.68975125 128.53650365 261.36922769 128.53526306 263.04870415 C128.53433741 264.28818999 128.53433741 264.28818999 128.53339306 265.55271595 C128.52993953 271.37543037 128.53576847 277.1980932 128.54518127 283.02079964 C128.55639929 290.11610602 128.55336531 297.21123538 128.5320583 304.30652148 C128.52154562 307.92656387 128.51742952 311.54631112 128.53065491 315.16635132 C128.54477229 319.08987334 128.52791617 323.01291203 128.50793457 326.93641663 C128.51685746 328.08144923 128.52578034 329.22648183 128.53497362 330.40621239 C128.47371617 336.58803614 128.17618776 340.3180423 124 345 C119.0220331 349.38535179 114.45602075 350.21958685 108 350 C101.48031447 348.99271639 95.10379117 347.16659903 88.73046875 345.49609375 C86.84485616 345.01442723 84.95888771 344.53415195 83.07258606 344.05519104 C78.11365006 342.79167923 73.1601957 341.5078276 68.20751953 340.22003174 C64.2197981 339.18675412 60.2284614 338.16791058 56.23681164 337.14993191 C51.40008963 335.9161136 46.56504778 334.67577953 41.73046875 333.43359375 C40.83823294 333.20446226 39.94599712 332.97533077 39.02672386 332.73925591 C38.15569841 332.51499491 37.28467297 332.29073391 36.38725281 332.05967712 C35.63369349 331.86575347 34.88013418 331.67182981 34.10373974 331.47202969 C22.67027909 328.48533969 11.37539733 325.25011352 0 322 C0 215.74 0 109.48 0 0 Z " fill="#000000" transform="translate(352,83)"/>
<path d="M0 0 C0 105.93 0 211.86 0 321 C-7.9660174 322.99150435 -15.86151317 324.85797163 -23.90307617 326.4519043 C-25.58578613 326.7890596 -25.58578613 326.7890596 -27.30249023 327.13302612 C-30.96543238 327.86621032 -34.62917781 328.595289 -38.29296875 329.32421875 C-40.85179561 329.83537193 -43.41057686 330.34675347 -45.96931458 330.85835266 C-51.30703915 331.92516317 -56.64518981 332.98981827 -61.98364258 334.05297852 C-68.84205274 335.41885232 -75.69973444 336.78834848 -82.55720043 338.15895367 C-87.82842341 339.2124893 -93.09990936 340.26470558 -98.37145424 341.31662941 C-100.90218016 341.82163235 -103.43286942 342.32681903 -105.96352196 342.83218956 C-109.48223491 343.5345657 -113.00120512 344.23563698 -116.52026367 344.9362793 C-118.09959435 345.25181007 -118.09959435 345.25181007 -119.71083069 345.57371521 C-120.66249115 345.76290527 -121.61415161 345.95209534 -122.59465027 346.14701843 C-123.4261922 346.31273189 -124.25773413 346.47844534 -125.1144743 346.64918041 C-127 347 -127 347 -128 347 C-128 240.74 -128 134.48 -128 25 C-3 0 -3 0 0 0 Z " fill="#000000" transform="translate(320,83)"/>
</svg>
